<svg xmlns="http://www.w3.org/2000/svg" viewBox="0 0 600 400" role="img" aria-labelledby="title"><title id="title">海风里的慢骑：鹈鹕骑自行车</title><rect width="600" height="400" fill="#e8eee7"/><circle cx="444" cy="108" r="54" fill="#d6dfc2" opacity=".75"/><path d="M22 271Q93 221 151 253T277 246T416 235T584 245" fill="none" stroke="#344a46" stroke-width="1" opacity=".22"/><path d="M0 344Q170 326 304 347T600 339V400H0Z" fill="#c9d8c9" opacity=".55"/><path d="M44 357H555" stroke="#344a46" stroke-width="1" opacity=".45"/><g class="road" stroke="#344a46" stroke-linecap="round" opacity=".35"><path d="M64 374h35m56 0h19m209 0h39m80 0h30"/></g><g stroke="#344a46" fill="none" opacity=".45" stroke-linecap="round"><path d="M93 121q8-9 16 0 8-9 16 0m25-39q6-7 12 0 6-7 12 0"/><path d="M477 222h35m-22 9h41"/></g><g transform="translate(175 300)"><circle r="57" fill="#e8eee7" stroke="#344a46" stroke-width="5"/><circle r="49" fill="none" stroke="#344a46" stroke-width="1" opacity=".3"/><g class="spokes" stroke="#344a46" stroke-width="1.3" opacity=".6"><path d="M-49 0H49" transform="rotate(0)"/><path d="M-49 0H49" transform="rotate(30)"/><path d="M-49 0H49" transform="rotate(60)"/><path d="M-49 0H49" transform="rotate(90)"/><path d="M-49 0H49" transform="rotate(120)"/><path d="M-49 0H49" transform="rotate(150)"/></g><circle r="5" fill="#344a46"/></g><g transform="translate(411 300)"><circle r="57" fill="#e8eee7" stroke="#344a46" stroke-width="5"/><circle r="49" fill="none" stroke="#344a46" stroke-width="1" opacity=".3"/><g class="spokes" stroke="#344a46" stroke-width="1.3" opacity=".6"><path d="M-49 0H49" transform="rotate(0)"/><path d="M-49 0H49" transform="rotate(30)"/><path d="M-49 0H49" transform="rotate(60)"/><path d="M-49 0H49" transform="rotate(90)"/><path d="M-49 0H49" transform="rotate(120)"/><path d="M-49 0H49" transform="rotate(150)"/></g><circle r="5" fill="#344a46"/></g><g fill="none" stroke="#009da9" stroke-width="7" stroke-linecap="round" stroke-linejoin="round"><path d="m175 300 66-81 46 81H175m66-81h126l-80 81m124 0-60-121h30"/></g><path d="m236 208 6 14m-16-16h32m88-27h34q15 1 10 14" stroke="#344a46" stroke-width="6" stroke-linecap="round" fill="none"/><g class="bird"><path d="m251 188 21 38 22 25" fill="none" stroke="#e8ad57" stroke-width="9" stroke-linecap="round"/><path d="m289 252 17 2" stroke="#344a46" stroke-width="5" stroke-linecap="round"/><path d="M217 177 187 151l35 3c16-22 47-21 74-26 13-3 10-24 14-37 5-20 34-29 47-10 7 11 0 27-13 35-6 3-10 12-10 22-1 40-25 64-67 64-18 0-35-7-50-25Z" fill="#fbf8ed" stroke="#344a46" stroke-width="2.8" stroke-linejoin="round"/><path d="M345 90 431 107 344 111Z" fill="#e8ad57" stroke="#344a46" stroke-width="2.2" stroke-linejoin="round"/><path d="M344 111 409 109q-33 38-76 25" fill="#e8ad57" opacity=".85" stroke="#344a46" stroke-width="2"/><circle cx="341" cy="86" r="4.5" fill="#344a46"/><circle cx="342" cy="84.6" r="1.1" fill="#fff"/><path d="M230 159q34-17 61 2l-22 16q-23 10-39-18Z" fill="#c9d8c9" stroke="#344a46" stroke-width="2"/><path d="m290 161 33 30 25-4" fill="none" stroke="#344a46" stroke-width="3.5" stroke-linecap="round"/><path d="m277 191-13 35 18 48" fill="none" stroke="#e8ad57" stroke-width="10" stroke-linecap="round"/><path d="m274 277 22 1" fill="none" stroke="#344a46" stroke-width="5" stroke-linecap="round"/></g><circle cx="287" cy="300" r="13" fill="#009da9" stroke="#344a46" stroke-width="2"/><g transform="translate(287 300)"><g class="crank" stroke="#344a46" stroke-width="3"><path d="m-5-24 10 48"/><path d="M-14-24H4M-4 24h18" stroke-width="5"/></g></g><g stroke="#344a46" stroke-width="1.5" opacity=".5"><path d="M78 340v-16m0 8-7-8m7 4 8-9m443 21v-22m0 10 7-8"/></g></svg>